<svg width="25" height="23" viewBox="0 0 25 23" fill="none" xmlns="http://www.w3.org/2000/svg">
<g clip-path="url(#clip0)">
<path d="M8.90625 21.85C9.375 22.2812 10.4688 23 11.7188 23C15.9375 23 16.875 20.125 17.0312 17.825C17.3438 14.5187 18.2812 14.6625 18.75 14.6625C19.8438 14.6625 20.1562 15.2375 20.1562 16.2437C19.2188 16.8188 18.5938 17.6812 18.5938 18.6875C18.5938 20.2687 20 21.5625 21.7188 21.5625C23.4375 21.5625 24.8438 20.2687 24.8438 18.6875C24.8438 17.1063 23.4375 15.8125 21.7188 15.8125H21.4062C21.0938 14.5188 20.3125 13.225 18.5938 13.225C16.0938 13.225 15.4688 15.2375 15.3125 17.3938C15.1562 20.4125 14.0625 21.5625 11.7188 21.5625C11.0938 21.5625 10.4688 21.275 10.1562 20.9875C9.21875 20.2688 9.375 17.6812 9.375 17.6812C12.5 17.6812 15.625 15.0938 16.7188 10.7812L16.4062 10.6375C16.875 8.9125 17.1875 6.9 17.1875 5.4625C17.1875 3.88125 16.7188 2.73125 15.625 1.86875C14.5312 1.00625 13.2812 0.71875 12.3438 0.71875C12.0312 0.2875 11.5625 0 10.9375 0C10.1562 0 9.375 0.575 9.375 1.4375C9.375 2.3 10 2.875 10.9375 2.875C11.5625 2.875 12.0312 2.5875 12.1875 2.15625C12.9688 2.15625 13.75 2.44375 14.5312 3.01875C15.3125 3.59375 15.625 4.3125 15.625 5.4625C15.625 6.75625 15.3125 8.625 14.8438 10.4938L14.5312 10.35C14.0625 11.9312 12.5 15.525 9.375 15.525H7.8125C4.6875 15.525 3.125 11.9312 2.65625 10.35L2.34375 10.4938C1.875 8.625 1.5625 6.75625 1.5625 5.4625C1.5625 4.3125 1.875 3.59375 2.65625 3.01875C3.28125 2.44375 4.21875 2.3 5 2.15625C5.15625 2.5875 5.625 2.875 6.25 2.875C7.1875 2.875 7.8125 2.3 7.8125 1.4375C7.8125 0.575 7.1875 0 6.25 0C5.625 0 5.15625 0.2875 4.84375 0.71875C3.90625 0.71875 2.65625 1.00625 1.5625 1.86875C0.46875 2.73125 0 3.88125 0 5.4625C0 6.9 0.3125 8.9125 0.78125 10.7812L0.46875 10.925C1.5625 15.0938 4.6875 17.6812 7.8125 17.6812C7.8125 17.6812 7.65625 20.8438 8.90625 21.85ZM21.875 20.125C20.9375 20.125 20.3125 19.55 20.3125 18.6875C20.3125 17.825 20.9375 17.25 21.875 17.25C22.8125 17.25 23.4375 17.825 23.4375 18.6875C23.4375 19.55 22.6562 20.125 21.875 20.125Z" fill="black"/>
</g>
<defs>
<clipPath id="clip0">
<rect width="25" height="23" fill="white"/>
</clipPath>
</defs>
</svg>
