<svg width="26" height="20" viewBox="0 0 26 20" fill="none" xmlns="http://www.w3.org/2000/svg">
<path d="M20.6 1H4.40005C4.04201 1 3.69863 1.10536 3.44545 1.29289C3.19228 1.48043 3.05005 1.73478 3.05005 2V18C3.05005 18.2652 3.19228 18.5196 3.44545 18.7071C3.69863 18.8946 4.04201 19 4.40005 19H20.6C20.9581 19 21.3015 18.8946 21.5546 18.7071C21.8078 18.5196 21.9501 18.2652 21.9501 18V2C21.9501 1.73478 21.8078 1.48043 21.5546 1.29289C21.3015 1.10536 20.9581 1 20.6 1ZM19.25 17H5.75005V3H19.25V17ZM16.5501 5H8.45005V7H16.5501V5ZM16.5501 13H8.45005V15H16.5501V13ZM16.5501 9H8.45005V11H16.5501V9Z" fill="black"/>
</svg>
