<svg width="21" height="20" viewBox="0 0 21 20" fill="none" xmlns="http://www.w3.org/2000/svg">
<g clip-path="url(#clip0)">
<path d="M19.425 1.75L19.1625 1.5C18.2437 0.5 16.8 0 15.4875 0C14.175 0 12.7312 0.5 11.6812 1.5L1.575 11.125C-0.525 13.125 -0.525 16.25 1.575 18.25L1.8375 18.5C2.75625 19.5 4.2 20 5.5125 20C6.825 20 8.26875 19.5 9.31875 18.5L19.5562 8.75C21.525 6.875 21.525 3.625 19.425 1.75ZM18.5063 8L13.3875 12.875L8.79375 8.375L3.80625 13.125C2.3625 14.5 2.3625 16.25 2.49375 17.5C0.91875 16 0.91875 13.625 2.49375 12.125L12.7312 2.375C13.3875 1.625 14.4375 1.25 15.4875 1.25C16.5375 1.25 17.5875 1.625 18.375 2.375L18.6375 2.625C19.2937 3.25 19.6875 4.25 19.6875 5.25C19.6875 6.25 19.2938 7.25 18.5063 8Z" fill="black"/>
</g>
<defs>
<clipPath id="clip0">
<rect width="21" height="20" fill="white"/>
</clipPath>
</defs>
</svg>
