<svg width="28" height="23" viewBox="0 0 28 23" fill="none" xmlns="http://www.w3.org/2000/svg">
<path d="M21.9234 16.4523C18.2521 15.3537 17.0785 14.4264 17.0785 12.4408C17.0785 11.2492 18.2814 10.4769 18.6914 9.4557C19.1015 8.43445 19.3387 7.22534 19.5359 6.3458C19.7331 5.46626 19.8114 5.12607 19.9187 4.18893C20.0498 3.01936 19.0966 0 14 0C8.90491 0 7.94871 3.01936 8.08276 4.18893C8.19 5.12607 8.26877 5.46629 8.46552 6.3458C8.66229 7.22532 8.89719 8.43437 9.30699 9.4557C9.71677 10.477 10.9214 11.2492 10.9214 12.4408C10.9214 14.4264 9.7478 15.3537 6.07654 16.4523C2.39192 17.5534 0 18.6392 0 19.4062V23H28V19.4062C28 18.6404 25.6066 17.5546 21.9234 16.4523Z" fill="black"/>
</svg>
