<svg width="30" height="25" viewBox="0 0 30 25" fill="none" xmlns="http://www.w3.org/2000/svg">
<path d="M13.9375 15.8125L12.1625 14.3438L13.9375 12.8646L15.7 14.3438L17.4625 12.8646L15.7 11.3958L17.4625 9.92708L19.2375 11.3958L21 9.92708L17.4625 6.97917L8.62498 14.3438L12.1625 17.2917L13.9375 15.8125ZM3.84998 19.7917L7.74998 16.5521L5.09998 14.3438L17.4625 4.03125L20.125 6.25L21.875 4.77083L20.125 3.29167L21.875 1.82292L27.1875 6.25L25.425 7.70833L23.65 6.25L21.875 7.70833L24.5375 9.92708L12.1625 20.2292L9.51248 18.0208L3.84998 22.75V19.7917Z" fill="black"/>
</svg>
