<svg width="35" height="35" viewBox="0 0 35 35" fill="none" xmlns="http://www.w3.org/2000/svg">
<path d="M16.5565 26.8789C11.9655 28.1996 9.44442 21.7301 8.48192 19.4223C6.56239 14.8121 1.55575 11.5965 1.92489 8.20312C2.29403 4.80976 6.46395 5.14883 6.46395 5.14883" stroke="#BDBDBD" stroke-width="0.75" stroke-miterlimit="10" stroke-linejoin="round"/>
<path d="M16.2695 26.8789C20.8879 25.6539 19.384 18.9738 19.023 16.4992C18.3039 11.5555 20.948 6.22617 18.8891 3.50546C16.8301 0.78476 13.4258 3.21562 13.4258 3.21562" stroke="#BDBDBD" stroke-width="0.75" stroke-miterlimit="10" stroke-linejoin="round"/>
<path d="M27.8468 12.9828C30.1498 12.9828 32.0167 11.1159 32.0167 8.81289C32.0167 6.5099 30.1498 4.64297 27.8468 4.64297C25.5438 4.64297 23.6769 6.5099 23.6769 8.81289C23.6769 11.1159 25.5438 12.9828 27.8468 12.9828Z" fill="#878787"/>
<path d="M27.9944 12.1789C30.0195 12.1789 31.6612 10.5372 31.6612 8.5121C31.6612 6.48699 30.0195 4.84531 27.9944 4.84531C25.9693 4.84531 24.3276 6.48699 24.3276 8.5121C24.3276 10.5372 25.9693 12.1789 27.9944 12.1789Z" fill="#BDBDBD"/>
<path d="M18.9739 16.1137C18.7306 17.9566 21.7466 24.6887 17.0681 26.5316C11.829 28.5988 9.87393 20.9125 8.48486 19.4223" stroke="#03A9F4" stroke-miterlimit="10"/>
<path d="M8.92224 20.1086C8.92224 20.1086 11.8672 23.2148 15.3207 21.7902C18.5937 20.4395 19.1023 16.8547 19.1023 16.8547" stroke="#03A9F4" stroke-width="0.625" stroke-miterlimit="10"/>
<path opacity="0.22" d="M27.6062 5.85977C26.1734 6.19336 25.2847 7.62344 25.6156 9.05625C25.6648 9.26953 25.7414 9.47735 25.8426 9.67422L26.0285 10.0406C25.5035 10.727 25.0769 10.9895 24.932 11.7852C25.3039 12.1488 25.7386 12.4387 26.2144 12.641C26.2144 12.6383 26.2172 12.6355 26.2172 12.6328C26.2172 12.6355 26.2199 12.6383 26.2199 12.6438C27.0047 12.9773 27.8988 13.0785 28.7957 12.8707C28.8969 12.8461 28.9926 12.816 29.0883 12.7859L29.0035 12.0203C29.0035 12.0203 29.1129 11.0496 29.1375 10.9977C29.2004 10.8746 29.4547 10.809 29.5859 10.7324C29.9031 10.541 30.1793 10.2813 30.3926 9.97774C30.6052 9.67122 30.7515 9.32367 30.8222 8.95735C30.8928 8.59104 30.8862 8.21401 30.8027 7.85039C30.4691 6.41758 29.0363 5.52617 27.6062 5.85977Z" fill="#212121"/>
<path d="M16.5211 26.2582C19.1434 32.2656 23.1629 33.116 26.1324 32.5992C28.741 32.1426 32.1946 29.8047 32.1864 25.5664C32.1754 20.4586 28.7684 20.7812 26.9227 17.5082C24.6231 13.4285 27.7567 9.68242 27.7567 9.68242" stroke="#03A9F4" stroke-miterlimit="10"/>
<path opacity="0.22" d="M25.9055 10.6012C25.9055 10.6012 26.425 10.3359 26.9227 10.6203C27.7102 11.0687 27.7868 11.7086 27.7868 11.7086C27.7868 11.7086 28.2626 10.7625 28.5168 10.5055C28.7684 10.2457 26.9938 8.95781 26.5918 9.45273C26.1899 9.94765 25.9055 10.6012 25.9055 10.6012Z" fill="#212121"/>
<path d="M7.6098 3.83906C7.19965 3.84179 6.83871 4.03867 6.60082 4.33671L6.26176 4.06875C5.95277 3.82539 5.49886 4.04687 5.5016 4.44062L5.51254 5.85976C5.51527 6.25351 5.97191 6.46953 6.27543 6.2207L6.60629 5.95273C6.84691 6.25078 7.21332 6.44492 7.62621 6.44218C8.34535 6.43671 8.92504 5.84882 8.91957 5.12968C8.9141 4.41054 8.32894 3.83359 7.6098 3.83906Z" fill="#616161"/>
<path d="M14.5277 3.34141L13.8031 2.12187C13.6008 1.78281 13.0977 1.8293 12.961 2.1957L12.8106 2.60039C12.4524 2.46641 12.0422 2.48555 11.6895 2.69609C11.5423 2.78342 11.4138 2.89891 11.3113 3.03595C11.2089 3.17299 11.1344 3.32889 11.0922 3.49474C11.0501 3.66059 11.041 3.83312 11.0656 4.00246C11.0902 4.1718 11.148 4.33464 11.2356 4.48164C11.3229 4.6288 11.4384 4.7573 11.5754 4.85977C11.7125 4.96225 11.8684 5.0367 12.0342 5.07886C12.2001 5.12102 12.3726 5.13006 12.5419 5.10547C12.7113 5.08088 12.8741 5.02314 13.0211 4.93555C13.3766 4.725 13.5899 4.36953 13.6418 3.98945L14.0629 4.04687C14.4512 4.09883 14.7301 3.68047 14.5277 3.34141Z" fill="#616161"/>
<path d="M28.4895 10.5055C29.8667 10.5055 30.9832 9.38898 30.9832 8.01172C30.9832 6.63446 29.8667 5.51797 28.4895 5.51797C27.1122 5.51797 25.9957 6.63446 25.9957 8.01172C25.9957 9.38898 27.1122 10.5055 28.4895 10.5055Z" fill="#424242"/>
<path d="M28.6153 9.75352C29.6844 9.75352 30.5512 8.88677 30.5512 7.81758C30.5512 6.74839 29.6844 5.88165 28.6153 5.88165C27.5461 5.88165 26.6793 6.74839 26.6793 7.81758C26.6793 8.88677 27.5461 9.75352 28.6153 9.75352Z" fill="#D1D1D1"/>
<path d="M11.5855 4.13164C11.3586 3.80625 11.4023 3.19922 11.7933 2.92305C12.1843 2.64688 12.775 2.76719 13.0019 3.13086C13.2562 3.53555 12.5918 3.17188 12.2007 3.44805C11.8097 3.72422 11.859 4.52539 11.5855 4.13164Z" fill="#757575"/>
<path d="M6.8387 4.7168C6.93714 4.33126 7.42113 3.96758 7.88597 4.08243C8.35081 4.19727 8.64613 4.71954 8.52034 5.12969C8.38089 5.58633 8.21956 4.84532 7.75472 4.73321C7.29261 4.61836 6.72113 5.18165 6.8387 4.7168Z" fill="#757575"/>
</svg>
