<svg width="45" height="38" viewBox="0 0 45 38" fill="none" xmlns="http://www.w3.org/2000/svg">
<path d="M26.0367 34.2772C30.0375 37.6556 36.5871 37.6556 40.5914 34.2772C44.5922 30.8987 44.5922 25.368 40.5914 21.9866L29.7773 12.8547L15.2227 25.1453L26.0367 34.2772Z" fill="url(#paint0_radial)"/>
<path d="M29.7773 12.8547L18.9632 3.72282C14.9625 0.344378 8.41284 0.344378 4.40854 3.72282C0.407764 7.10125 0.407764 12.632 4.40854 16.0134L15.2226 25.1453L29.7773 12.8547Z" fill="url(#paint1_radial)"/>
<path opacity="0.2" d="M11.6859 2.07812C14.1609 2.07812 16.4812 2.88562 18.2179 4.35219L39.846 22.6159C41.5828 24.0825 42.539 26.0419 42.539 28.1319C42.539 30.2219 41.5828 32.1812 39.846 33.6478C38.1093 35.1144 35.789 35.9219 33.314 35.9219C30.839 35.9219 28.5187 35.1144 26.782 33.6478L5.15386 15.3841C3.41714 13.9175 2.46089 11.9581 2.46089 9.86813C2.46089 7.77813 3.41714 5.81875 5.15386 4.35219C6.89058 2.88562 9.21089 2.07812 11.6859 2.07812ZM11.6859 1.1875C9.04917 1.1875 6.40894 2.03359 4.40855 3.72281C0.407763 7.10125 0.407763 12.632 4.40855 16.0134L26.0367 34.2772C28.0371 35.9664 30.6773 36.8125 33.314 36.8125C35.9507 36.8125 38.591 35.9664 40.5914 34.2772C44.5921 30.8988 44.5921 25.368 40.5914 21.9866L18.9632 3.72281C16.9628 2.03359 14.3226 1.1875 11.6859 1.1875Z" fill="#424242"/>
<path opacity="0.2" d="M30.5226 13.4856L15.9676 25.7762L15.2219 25.1468L29.7766 12.8559L30.5226 13.4856Z" fill="#424242"/>
<defs>
<radialGradient id="paint0_radial" cx="0" cy="0" r="1" gradientUnits="userSpaceOnUse" gradientTransform="translate(23.906 19.198) rotate(44.5121) scale(22.0211 14.7297)">
<stop stop-color="#EF5350"/>
<stop offset="0.626" stop-color="#D83534"/>
<stop offset="0.736" stop-color="#D32F2F"/>
<stop offset="1" stop-color="#D32F2F"/>
</radialGradient>
<radialGradient id="paint1_radial" cx="0" cy="0" r="1" gradientUnits="userSpaceOnUse" gradientTransform="translate(5.85899 4.6512) rotate(40.1802) scale(21.7821 16.9005)">
<stop stop-color="#FFEB3B"/>
<stop offset="0.349" stop-color="#FEE439"/>
<stop offset="0.67" stop-color="#FDD835"/>
<stop offset="0.995" stop-color="#FBC02D"/>
</radialGradient>
</defs>
</svg>
