<svg width="40" height="46" viewBox="0 0 40 46" fill="none" xmlns="http://www.w3.org/2000/svg">
    <defs>
    </defs>
<path d="M30.9064 28.6961C30.5158 27.8803 31.0126 27.0502 31.8626 26.0223C33.2095 24.3908 34.6751 20.6066 33.3126 16.7648C33.322 16.7433 33.0439 16.0964 33.0533 16.0748L32.4939 16.0425C32.3158 16.0138 26.1626 15.9994 20.0033 15.9994C13.8439 15.9994 7.69076 16.0138 7.51263 16.0425C7.51263 16.0425 6.68451 16.7433 6.69076 16.7648C5.33138 20.6066 6.79388 24.3872 8.14076 26.0223C8.98763 27.0502 9.48451 27.8803 9.09701 28.6961C8.71888 29.4903 7.59388 29.6053 7.59388 29.6053C7.59388 29.6053 7.85326 30.4175 8.47826 30.8559C9.05638 31.262 9.76888 31.3555 10.2595 31.3698C10.2595 31.3698 12.1814 34.4281 17.2064 34.4281H22.8001C27.8251 34.4281 29.747 31.3698 29.747 31.3698C30.2376 31.3555 30.9501 31.262 31.5283 30.8559C32.1533 30.4175 32.4126 29.6053 32.4126 29.6053C32.4126 29.6053 31.2845 29.4903 30.9064 28.6961Z" fill="#543930"/>
<path d="M19.9969 34.4245V31.032L28.9251 30.2198L29.7376 31.3698C29.7376 31.3698 27.8157 34.4281 22.7907 34.4281L19.9969 34.4245Z" fill="url(#paint0_radial)"/>
<path d="M29.7187 29.8856C28.3812 27.5497 31.3468 26.6764 31.3468 26.6764L31.35 26.68C30.8343 27.4167 30.6 28.06 30.9031 28.6961C31.2812 29.4903 32.4062 29.6053 32.4062 29.6053C32.4062 29.6053 30.8718 31.1722 29.7187 29.8856Z" fill="url(#paint1_radial)"/>
<path d="M33.3187 16.7648C34.6468 20.4844 33.2499 24.3153 31.9406 25.9325C31.7624 26.1553 30.9999 27.0142 30.8249 27.7006C30.8249 27.7006 27.8437 22.9173 26.9531 20.107C26.7749 19.5392 26.6093 18.957 26.5874 18.3533C26.5718 17.9005 26.6312 17.3614 26.8593 16.9769C27.1374 16.5061 33.1593 16.3659 33.1593 16.3659C33.1593 16.3695 33.3187 16.7648 33.3187 16.7648Z" fill="url(#paint2_radial)"/>
<path d="M6.68744 16.7648C5.36244 20.4844 6.75932 24.3153 8.06557 25.9289C8.24682 26.1517 9.00619 27.0106 9.18119 27.697C9.18119 27.697 12.1624 22.9137 13.0531 20.1034C13.2343 19.5356 13.3968 18.9534 13.4187 18.3497C13.4343 17.8969 13.3749 17.3578 13.1468 16.9733C12.8687 16.5025 12.5437 16.6283 12.0718 16.6283C11.1718 16.6283 7.23119 16.3623 6.92494 16.3623C6.92807 16.3695 6.68744 16.7648 6.68744 16.7648Z" fill="url(#paint3_radial)"/>
<path d="M20.0094 34.4245V31.032L11.0813 30.2198L10.2688 31.3698C10.2688 31.3698 12.1907 34.4281 17.2157 34.4281L20.0094 34.4245Z" fill="url(#paint4_radial)"/>
<path d="M10.2876 29.8856C11.6251 27.5497 8.65947 26.6764 8.65947 26.6764L8.65635 26.68C9.17197 27.4167 9.40635 28.06 9.10322 28.6961C8.7251 29.4903 7.6001 29.6053 7.6001 29.6053C7.6001 29.6053 9.13447 31.1722 10.2876 29.8856Z" fill="url(#paint5_radial)"/>
<path d="M20.0438 34.5H20C11.9844 34.5108 3.75 37.0516 3.75 43.4808V44.5409H36.25V43.4808C36.25 37.4181 28.0938 34.5 20.0438 34.5Z" fill="url(#paint6_linear)"/>
<path d="M23.4437 32.8397H16.5562L14.4968 35.3984L17.4593 40.6777L20 37.0695L22.5406 40.6777L25.5031 35.3984L23.4437 32.8397Z" fill="url(#paint7_linear)"/>
<path d="M20.1812 40.1098H19.8406C19.4687 40.1098 19.1469 39.8152 19.0594 39.3983L18.9281 38.7694C18.8094 38.1908 19.4469 37.6338 20.0281 37.6338C20.6094 37.6338 21.2031 38.1836 21.0875 38.7622L20.9625 39.3911C20.8812 39.8152 20.5562 40.1098 20.1812 40.1098Z" fill="#1565C0"/>
<path d="M16.2937 40.6561V37.278C16.2937 36.8575 16.6906 36.5916 17.0125 36.7964L19.6187 38.4603C19.9437 38.6687 19.95 39.2042 19.625 39.4162L17.0187 41.1341C16.6937 41.3425 16.2937 41.0802 16.2937 40.6561Z" fill="#1565C0"/>
<path d="M23.6 40.6561V37.278C23.6 36.8575 23.2031 36.5916 22.8812 36.7964L20.275 38.4603C19.95 38.6687 19.9437 39.2042 20.2687 39.4162L22.875 41.1341C23.1968 41.3425 23.6 41.0802 23.6 40.6561Z" fill="#1565C0"/>
<path d="M20 30.3061H17.1625V33.8927C17.1625 35.5134 18.3187 36.8288 19.7437 36.8288H20.2594C21.6844 36.8288 22.8406 35.5134 22.8406 33.8927V30.3061H20Z" fill="#99674F"/>
<path d="M28.5407 18.1233H11.4594C9.6188 18.1233 8.11255 19.9705 8.11255 22.2238C8.11255 24.477 9.6188 26.3242 11.4594 26.3242H28.5376C30.3782 26.3242 31.8844 24.477 31.8844 22.2238C31.8844 19.9705 30.3813 18.1233 28.5407 18.1233Z" fill="#99674F"/>
<path d="M19.9999 3.97828C14.5624 3.97828 9.5249 10.6663 9.5249 20.2939C9.5249 29.8677 14.7155 34.6006 19.9999 34.6006C25.2843 34.6006 30.4749 29.8641 30.4749 20.2903C30.4749 10.6663 25.4374 3.97828 19.9999 3.97828Z" fill="#BA8D68"/>
<path d="M17.125 17.9041C16.8344 17.462 16.1657 16.8223 14.8657 16.8223C13.5657 16.8223 12.8938 17.4656 12.6063 17.9041C12.4782 18.0981 12.5094 18.3245 12.6 18.4611C12.6813 18.5869 12.925 18.7055 13.1938 18.6013C13.4625 18.497 13.9875 18.1844 14.8657 18.1772C15.7438 18.1844 16.2688 18.497 16.5375 18.6013C16.8063 18.7055 17.05 18.5905 17.1313 18.4611C17.2188 18.3245 17.2532 18.0981 17.125 17.9041Z" fill="#613E31"/>
<path d="M27.3969 17.9041C27.1063 17.462 26.4375 16.8223 25.1375 16.8223C23.8375 16.8223 23.1656 17.4656 22.8781 17.9041C22.75 18.0981 22.7813 18.3245 22.8719 18.4611C22.9531 18.5869 23.1969 18.7055 23.4656 18.6013C23.7344 18.497 24.2594 18.1844 25.1375 18.1772C26.0156 18.1844 26.5406 18.497 26.8094 18.6013C27.0781 18.7055 27.3219 18.5905 27.4031 18.4611C27.4906 18.3245 27.525 18.0981 27.3969 17.9041Z" fill="#613E31"/>
<path d="M14.8625 22.9677C15.7134 22.9677 16.4031 22.1471 16.4031 21.1348C16.4031 20.1226 15.7134 19.302 14.8625 19.302C14.0117 19.302 13.3219 20.1226 13.3219 21.1348C13.3219 22.1471 14.0117 22.9677 14.8625 22.9677Z" fill="#49362E"/>
<path d="M25.1375 22.9677C25.9884 22.9677 26.6782 22.1471 26.6782 21.1348C26.6782 20.1226 25.9884 19.302 25.1375 19.302C24.2867 19.302 23.5969 20.1226 23.5969 21.1348C23.5969 22.1471 24.2867 22.9677 25.1375 22.9677Z" fill="#49362E"/>
<path d="M21.2062 24.4591C21.1718 24.4447 21.1406 24.4339 21.1062 24.4303H18.8937C18.8593 24.4339 18.8249 24.4447 18.7937 24.4591C18.5937 24.5525 18.4843 24.7897 18.5781 25.0448C18.6718 25.3 19.1124 26.0116 19.9999 26.0116C20.8874 26.0116 21.3281 25.2964 21.4218 25.0448C21.5156 24.7897 21.4062 24.5525 21.2062 24.4591Z" fill="#99674F"/>
<path d="M22.6313 27.3628C21.6376 28.042 18.372 28.042 17.3782 27.3628C16.8063 26.9711 16.222 27.5712 16.4595 28.1678C16.6938 28.7536 18.472 30.1156 20.0126 30.1156C21.5532 30.1156 23.3095 28.7536 23.5438 28.1678C23.7782 27.5712 23.2032 26.9711 22.6313 27.3628Z" fill="#5D4037"/>
<path d="M32.5215 9.02391C31.759 7.69781 30.0497 5.91891 28.5153 5.80031C28.2684 4.10406 26.6903 2.66656 25.1622 2.10953C21.0278 0.603751 18.3372 2.29281 16.8934 3.19844C16.5934 3.38531 14.6528 4.62516 13.2965 3.7375C12.4465 3.18047 12.4622 1.67469 12.4622 1.67469C12.4622 1.67469 9.79966 2.84266 10.709 6.095C9.79341 6.13813 8.59341 6.58375 7.95904 8.06078C7.20279 9.82172 7.47154 11.2916 7.69029 11.9959C6.90279 12.765 5.91216 14.4002 6.59029 16.5241C7.10279 18.1233 9.14341 18.86 9.14341 18.86C8.99966 21.7386 9.46529 23.5103 9.71216 24.2255C9.75591 24.3513 9.90903 24.3405 9.93716 24.2111C10.2465 22.7844 11.3028 17.8142 11.1965 16.9481C11.1965 16.9481 14.7434 16.1395 18.1247 13.2753C18.8122 12.6931 19.559 12.1972 20.3528 11.8342C24.5997 9.89 25.4872 13.207 25.4872 13.207C25.4872 13.207 28.4309 12.5566 29.3184 17.2572C29.6528 19.0181 29.8778 21.8392 30.0684 23.8122C30.0809 23.9523 30.2465 23.9811 30.2934 23.8517C30.5903 23.0683 31.184 21.5158 31.3247 19.9309C31.3747 19.3739 32.6809 18.6372 33.2434 16.2438C33.9965 13.0525 33.0747 9.98344 32.5215 9.02391Z" fill="#543930"/>
<path d="M31.3188 19.9453C31.3688 19.3883 32.6751 18.6516 33.2376 16.2581C33.297 16.003 33.347 15.7442 33.3938 15.4855C33.8501 12.5781 33.0313 9.90797 32.522 9.0239C31.8157 7.79844 30.3032 6.18844 28.8688 5.85781C28.7438 5.83984 28.622 5.82187 28.5063 5.81469C28.5063 5.81469 28.6095 6.58734 28.3376 7.20187C27.9876 7.99969 27.272 8.19015 27.272 8.19015C31.0126 12.4955 30.747 16.0964 31.3188 19.9453Z" fill="url(#paint8_radial)"/>
<path d="M17.7968 2.65578C17.4531 2.84625 17.1531 3.03672 16.8906 3.19844C16.5906 3.38531 14.6499 4.62515 13.2937 3.7375C12.4593 3.19125 12.4593 1.73219 12.4593 1.68187C12.0749 2.24609 10.9124 6.27469 14.3124 6.54422C15.7781 6.65922 16.6812 5.18937 17.2187 3.94594C17.4124 3.49312 17.7156 2.83187 17.7968 2.65578Z" fill="url(#paint9_radial)"/>
<path d="M24.7376 1.96578C27.0251 2.67735 28.1407 4.01781 28.5126 5.80391C28.6219 6.3286 28.7532 11.2233 20.6282 5.66016C17.6063 3.59016 18.4313 2.29641 18.7844 2.14906C20.1657 1.57406 22.1751 1.16797 24.7376 1.96578Z" fill="url(#paint10_radial)"/>
<path d="M12.45 1.68188C12.4469 1.68547 12.4407 1.68547 12.4313 1.69266H12.4282C12.1375 1.83282 9.85316 3.0511 10.7063 6.095L13.1375 6.54422C10.9844 4.03578 12.4594 1.67469 12.4594 1.67469C12.4594 1.67469 12.4532 1.67828 12.45 1.68188Z" fill="url(#paint11_radial)"/>
<path d="M12.2094 6.37172L10.7063 6.095C10.6469 6.095 10.4469 6.11656 10.3375 6.13453C9.49065 6.2711 8.49377 6.77422 7.95315 8.06078C7.3719 9.44797 7.38752 10.6375 7.5469 11.4317C7.59377 11.6977 7.68752 11.9995 7.68752 11.9995C7.68752 11.9995 8.43127 11.1873 10.2031 11.1334L12.2094 6.37172Z" fill="url(#paint12_radial)"/>
<path d="M7.61561 12.0678C6.87498 12.8225 5.87811 14.508 6.61248 16.5995C7.16561 18.1772 9.14061 18.86 9.14061 18.86C9.14061 18.8672 9.53436 19.0038 9.73748 19.0038L10.2 11.1334C9.25311 11.1334 8.34373 11.4605 7.75623 11.9312C7.76561 11.942 7.61248 12.057 7.61561 12.0678Z" fill="url(#paint13_radial)"/>

<radialGradient id="paint0_radial" cx="0" cy="0" r="1" gradientUnits="userSpaceOnUse" gradientTransform="translate(24.5573 29.5228) scale(7.31844 4.13404)">
<stop offset="0.728" stop-color="#6D4C41" stop-opacity="0"/>
<stop offset="1" stop-color="#6D4C41"/>
</radialGradient>
<radialGradient id="paint1_radial" cx="0" cy="0" r="1" gradientUnits="userSpaceOnUse" gradientTransform="translate(31.7659 28.2704) rotate(151.715) scale(2.22446 1.79385)">
<stop offset="0.663" stop-color="#6D4C41"/>
<stop offset="1" stop-color="#6D4C41" stop-opacity="0"/>
</radialGradient>
<radialGradient id="paint2_radial" cx="0" cy="0" r="1" gradientUnits="userSpaceOnUse" gradientTransform="translate(26.1608 21.236) rotate(-93.7219) scale(10.9171 7.92265)">
<stop offset="0.725" stop-color="#6D4C41" stop-opacity="0"/>
<stop offset="1" stop-color="#6D4C41"/>
</radialGradient>
<radialGradient id="paint3_radial" cx="0" cy="0" r="1" gradientUnits="userSpaceOnUse" gradientTransform="translate(13.8463 21.2358) rotate(-86.2781) scale(10.9171 7.92265)">
<stop offset="0.725" stop-color="#6D4C41" stop-opacity="0"/>
<stop offset="1" stop-color="#6D4C41"/>
</radialGradient>
<radialGradient id="paint4_radial" cx="0" cy="0" r="1" gradientUnits="userSpaceOnUse" gradientTransform="translate(15.4497 29.5228) rotate(180) scale(7.31844 4.13404)">
<stop offset="0.728" stop-color="#6D4C41" stop-opacity="0"/>
<stop offset="1" stop-color="#6D4C41"/>
</radialGradient>
<radialGradient id="paint5_radial" cx="0" cy="0" r="1" gradientUnits="userSpaceOnUse" gradientTransform="translate(8.24163 28.2706) rotate(28.2853) scale(2.22446 1.79385)">
<stop offset="0.663" stop-color="#6D4C41"/>
<stop offset="1" stop-color="#6D4C41" stop-opacity="0"/>
</radialGradient>
<linearGradient id="paint6_linear" x1="20" y1="34.3879" x2="20" y2="44.4543" gradientUnits="userSpaceOnUse">
<stop offset="0.003" stop-color="#E3F2FD"/>
<stop offset="0.225" stop-color="#D6ECFC"/>
<stop offset="0.635" stop-color="#B4DBFB"/>
<stop offset="1" stop-color="#90CAF9"/>
</linearGradient>
<linearGradient id="paint7_linear" x1="20" y1="40.1354" x2="20" y2="33.5829" gradientUnits="userSpaceOnUse">
<stop offset="0.5" stop-color="#F5F5F5"/>
<stop offset="1" stop-color="#DADADA"/>
</linearGradient>
<radialGradient id="paint8_radial" cx="0" cy="0" r="1" gradientUnits="userSpaceOnUse" gradientTransform="translate(25.6304 15.4716) rotate(74.2987) scale(12.6568 8.35901)">
<stop offset="0.699" stop-color="#6D4C41" stop-opacity="0"/>
<stop offset="1" stop-color="#6D4C41"/>
</radialGradient>
<radialGradient id="paint9_radial" cx="0" cy="0" r="1" gradientUnits="userSpaceOnUse" gradientTransform="translate(14.7752 1.50992) rotate(31.6618) scale(3.02307 3.84519)">
<stop offset="0.58" stop-color="#6D4C41"/>
<stop offset="1" stop-color="#6D4C41" stop-opacity="0"/>
</radialGradient>
<radialGradient id="paint10_radial" cx="0" cy="0" r="1" gradientUnits="userSpaceOnUse" gradientTransform="translate(21.3006 7.60771) rotate(-154.19) scale(9.34978 5.76346)">
<stop offset="0.699" stop-color="#6D4C41" stop-opacity="0"/>
<stop offset="1" stop-color="#6D4C41"/>
</radialGradient>
<radialGradient id="paint11_radial" cx="0" cy="0" r="1" gradientUnits="userSpaceOnUse" gradientTransform="translate(13.6028 4.573) scale(2.67969 3.76977)">
<stop offset="0.702" stop-color="#6D4C41" stop-opacity="0"/>
<stop offset="1" stop-color="#6D4C41"/>
</radialGradient>
<radialGradient id="paint12_radial" cx="0" cy="0" r="1" gradientUnits="userSpaceOnUse" gradientTransform="translate(13.2337 10.0127) rotate(-162.809) scale(5.08052 5.35114)">
<stop offset="0.66" stop-color="#6D4C41" stop-opacity="0"/>
<stop offset="1" stop-color="#6D4C41"/>
</radialGradient>
<radialGradient id="paint13_radial" cx="0" cy="0" r="1" gradientUnits="userSpaceOnUse" gradientTransform="translate(12.0426 15.5936) rotate(8.99061) scale(5.29283 8.50196)">
<stop offset="0.598" stop-color="#6D4C41" stop-opacity="0"/>
<stop offset="1" stop-color="#6D4C41"/>
</radialGradient>

</svg>
