<svg width="42" height="37" viewBox="0 0 42 37" fill="none" xmlns="http://www.w3.org/2000/svg">
<path d="M35.07 6.63976L34.0955 5.78124L38.6695 1.75171C38.8959 1.55226 39.0862 1.48289 39.2733 1.48L40.5727 1.53781C40.6777 1.54359 40.7269 1.65921 40.6514 1.7257L35.07 6.63976Z" fill="#848484"/>
<path d="M10.115 34.7827C10.5174 34.4283 9.05994 32.5697 6.85972 30.6315C4.65951 28.6932 2.54971 27.4094 2.14735 27.7638C1.745 28.1183 3.20245 29.9769 5.40267 31.9151C7.60288 33.8533 9.71268 35.1372 10.115 34.7827Z" fill="#B9E4EA"/>
<path d="M5.44027 31.8836C3.74058 30.3862 1.87683 28.1952 2.14917 27.7645L1.48636 28.3484C0.784175 28.9669 2.29683 30.7765 4.49527 32.7132C6.69371 34.6499 8.74777 35.9825 9.44995 35.3639L10.1128 34.78C9.76824 35.0893 7.13996 33.3809 5.44027 31.8836Z" fill="#82AEC0"/>
<path d="M8.85599 33.0832C8.85599 33.0832 8.09474 32.9589 6.1588 31.2505C4.22287 29.5451 4.07849 28.8745 4.07849 28.8745L11.5007 22.3359L16.2782 26.5446L8.85599 33.0832Z" fill="#B9E4EA"/>
<path d="M20.5341 25.6081L34.7584 13.0772C34.929 12.9269 34.929 12.6812 34.7584 12.5309L27.4051 6.05875C27.3227 5.98656 27.2112 5.94603 27.095 5.94603C26.9788 5.94603 26.8673 5.98656 26.7849 6.05875L12.5738 18.5781C12.5738 18.5781 11.7601 18.8266 10.5985 18.2081C9.9357 17.8525 9.40414 17.6068 8.81679 18.1242C8.81679 18.1242 8.56742 18.9885 14.2801 24.0211C19.9927 29.0537 21.1051 28.8484 21.1051 28.8484C21.4398 28.5536 21.2921 28.0593 20.8984 27.2875C20.4193 26.3567 20.5341 25.6081 20.5341 25.6081Z" fill="#B9E4EA"/>
<path d="M34.9487 5.8882C34.8276 5.781 34.6837 5.69593 34.5252 5.63788C34.3667 5.57983 34.1967 5.54995 34.025 5.54995C33.8534 5.54995 33.6834 5.57983 33.5249 5.63788C33.3664 5.69593 33.2224 5.781 33.1014 5.8882L30.1285 8.50711L31.9759 10.1345L34.9487 7.51562C35.0704 7.40896 35.167 7.28216 35.2328 7.14252C35.2987 7.00288 35.3327 6.85314 35.3327 6.70191C35.3327 6.55069 35.2987 6.40095 35.2328 6.26131C35.167 6.12166 35.0704 5.99487 34.9487 5.8882Z" fill="#00937A"/>
<path d="M30.8634 8.88578L30.4041 8.48109L32.7994 6.37093C32.8294 6.34415 32.8652 6.32289 32.9046 6.30838C32.944 6.29387 32.9863 6.2864 33.029 6.2864C33.0718 6.2864 33.1141 6.29387 33.1535 6.30838C33.1929 6.32289 33.2287 6.34415 33.2587 6.37093C33.3867 6.48367 33.3867 6.66578 33.2587 6.77562L30.8634 8.88578Z" fill="#12D8B7"/>
<path d="M18.3422 24.7264C18.3422 24.7264 17.5809 24.6021 15.645 22.8938C13.7091 21.1854 13.5647 20.5177 13.5647 20.5177L19.3134 15.4533L24.0909 19.662L18.3422 24.7264Z" fill="#82AEC0"/>
<path d="M20.8327 29.0999C20.941 28.9872 21.046 28.8745 21.1674 28.7733C21.0853 28.7906 20.9967 28.782 20.918 28.7559C20.836 28.7299 20.767 28.6895 20.7014 28.6403C20.2322 28.2963 19.763 27.9523 19.3003 27.6026C18.5785 27.0563 17.8664 26.5013 17.1642 25.9347C16.2906 25.232 15.4351 24.5121 14.5983 23.7754C13.7649 23.0412 12.9511 22.2896 12.1538 21.5265C11.5172 20.9166 10.8905 20.2951 10.2769 19.6678C10.0538 19.4395 9.83065 19.2082 9.6108 18.977C9.41393 18.7688 9.1383 18.5491 9.04315 18.2919C9.00705 18.1907 8.99393 18.0838 9.02674 17.9826C8.64612 18.2109 8.34752 18.5405 8.0194 18.8266C7.96812 18.8713 7.93714 18.9309 7.93231 18.9943C7.92747 19.0576 7.94911 19.1204 7.99315 19.1706C8.47221 19.7314 10.126 21.5698 13.6763 24.6975C17.22 27.8194 19.261 29.2358 19.8844 29.6491C20.0025 29.7272 20.1666 29.7156 20.2716 29.626L20.626 29.3138C20.6981 29.2387 20.767 29.1693 20.8327 29.0999Z" fill="#82AEC0"/>
<path d="M27.4051 7.4607C28.0088 7.99258 27.1787 8.61985 27.1787 8.61985C27.1787 8.61985 16.0421 18.3555 14.8379 19.4077C14.4638 19.7372 14.0635 20.1852 13.5188 20.2517C12.6985 20.324 11.8979 19.8788 11.4221 19.3123C11.3598 19.2371 11.3532 19.1273 11.4812 19.1475C12.6821 19.373 13.0726 19.1013 13.8535 18.341C14.4868 17.7889 25.2493 8.36836 26.1156 7.61102C26.4535 7.31617 26.9162 7.02711 27.4051 7.4607Z" fill="white"/>
<path d="M26.7257 19.3007L19.7432 13.1899L17.9287 14.7827L24.8882 20.9195L26.7257 19.3007Z" fill="#455A64"/>
<path d="M19.6317 15.2191L20.2388 14.6786C20.3182 14.6085 20.4126 14.5529 20.5165 14.5149C20.6203 14.4769 20.7317 14.4574 20.8442 14.4574C20.9566 14.4574 21.068 14.4769 21.1719 14.5149C21.2757 14.5529 21.3701 14.6085 21.4496 14.6786L25.5905 18.3034C25.9285 18.6012 25.9219 19.0868 25.5839 19.3845L24.9769 19.9193C24.8969 19.9901 24.8018 20.0463 24.697 20.0846C24.5923 20.1229 24.48 20.1427 24.3666 20.1427C24.2532 20.1427 24.1409 20.1229 24.0361 20.0846C23.9314 20.0463 23.8363 19.9901 23.7563 19.9193L19.6285 16.2858C19.4689 16.1437 19.3796 15.9517 19.3803 15.7519C19.3809 15.552 19.4713 15.3605 19.6317 15.2191Z" fill="#212121"/>
</svg>
