<svg width="107" height="98" viewBox="0 0 107 98" fill="none" xmlns="http://www.w3.org/2000/svg">
<path d="M53.5 55.125C70.114 55.125 83.594 42.779 83.594 27.5625C83.594 12.3457 70.114 0 53.5 0C36.886 0 23.406 12.3457 23.406 27.5625C23.406 42.779 36.886 55.125 53.5 55.125ZM80.25 61.25H68.735C64.096 63.202 58.934 64.312 53.5 64.312C48.066 64.312 42.925 63.202 38.265 61.25H26.75C11.975 61.25 0 72.218 0 85.75V88.812C0 93.885 4.49301 98 10.031 98H96.969C102.507 98 107 93.885 107 88.812V85.75C107 72.218 95.025 61.25 80.25 61.25Z" fill="black"/>
</svg>
